<svg width="20" height="20" viewBox="0 0 20 20" fill="none" xmlns="http://www.w3.org/2000/svg">
<path d="M15.2364 4.68914C14.5381 4.00162 13.7332 3.46866 12.8538 3.10625C11.9636 2.73851 10.9989 2.54664 10.0021 2.54664C9.00005 2.54664 8.03529 2.73851 7.14515 3.10625C6.24968 3.47932 5.42883 4.02294 4.71992 4.73178C3.36605 6.08549 2.63582 7.84959 2.54521 9.63501C2.45459 11.4311 3.01426 13.2591 4.22421 14.7301C4.42676 14.9806 4.45341 15.3164 4.30416 15.5882C4.09096 16.0145 3.86176 16.3769 3.60591 16.6647C3.32341 16.9899 3.01426 17.235 2.67313 17.4056L2.90233 17.4322L3.13153 17.4429C3.55794 17.4429 3.99501 17.3683 4.4161 17.235C4.84784 17.0964 5.26893 16.8886 5.6527 16.6274C5.89789 16.4569 6.20704 16.4516 6.45222 16.5848C6.99057 16.8726 7.56623 17.0964 8.16321 17.2457C8.75486 17.3949 9.36783 17.4695 9.98613 17.4695C10.9882 17.4695 11.9583 17.2777 12.8431 16.9099C13.7332 16.5422 14.5541 15.9932 15.263 15.2897C15.9666 14.5862 16.5156 13.7654 16.8834 12.8754C17.2512 11.9854 17.443 11.0154 17.443 10.0187C17.443 9.01677 17.2512 8.05212 16.8834 7.15674C16.5156 6.2667 15.9666 5.45127 15.263 4.74244L15.2257 4.6998L15.2364 4.68914ZM6.16973 8.2653C5.88723 8.2653 5.65803 8.03613 5.65803 7.75366C5.65803 7.47119 5.88723 7.24202 6.16973 7.24202H13.8345C14.117 7.24202 14.3462 7.47119 14.3462 7.75366C14.3462 8.03613 14.117 8.2653 13.8345 8.2653H6.16973ZM6.16973 10.5144C5.88723 10.5144 5.65803 10.2852 5.65803 10.0027C5.65803 9.72028 5.88723 9.49111 6.16973 9.49111H13.8345C14.117 9.49111 14.3462 9.72028 14.3462 10.0027C14.3462 10.2852 14.117 10.5144 13.8345 10.5144H6.16973ZM6.16973 12.7635C5.88723 12.7635 5.65803 12.5343 5.65803 12.2518C5.65803 11.9694 5.88723 11.7402 6.16973 11.7402H13.8345C14.117 11.7402 14.3462 11.9694 14.3462 12.2518C14.3462 12.5343 14.117 12.7635 13.8345 12.7635H6.16973ZM13.4454 1.68325C14.5061 2.12027 15.4815 2.76515 16.3184 3.59657L16.361 3.63921C17.2085 4.48661 17.8641 5.47792 18.3119 6.55983C18.7596 7.64174 18.9941 8.80892 18.9941 10.0027C18.9941 11.2019 18.7596 12.3638 18.3119 13.4457C17.8641 14.5222 17.2032 15.5136 16.3557 16.361C15.5082 17.2084 14.5168 17.8692 13.4401 18.3116C12.3581 18.7593 11.1907 18.9938 9.99679 18.9938C9.2559 18.9938 8.515 18.9032 7.79543 18.722C7.2251 18.5781 6.67076 18.3809 6.13774 18.1304C5.74331 18.3596 5.32223 18.5514 4.89581 18.69C4.31482 18.8765 3.71785 18.9778 3.14219 18.9778C3.03025 18.9778 2.91299 18.9725 2.79573 18.9618C2.67313 18.9511 2.55587 18.9405 2.44926 18.9245C2.11346 18.8712 1.8203 18.7166 1.59111 18.4875C1.38323 18.2796 1.23931 18.0131 1.17535 17.7147L1.15936 17.6241C1.11139 17.299 1.17002 16.9685 1.31927 16.6861C1.46851 16.4036 1.70304 16.1691 2.00153 16.0199C2.1561 15.9453 2.30535 15.8227 2.45459 15.6521C2.54521 15.5455 2.63582 15.423 2.7211 15.2844C1.47917 13.5842 0.914171 11.5537 1.01545 9.55506C1.12205 7.39658 2.00153 5.27007 3.63789 3.63388C4.48539 2.78647 5.4768 2.1256 6.5535 1.67792C7.63552 1.23023 8.80283 0.995728 9.99679 0.995728C11.1961 0.995728 12.3634 1.23023 13.4401 1.67792L13.4454 1.68325Z" fill="#3B3B3B"/>
<path d="M15.2364 4.68915C14.5381 4.00163 13.7332 3.46867 12.8538 3.10626C11.9636 2.73852 10.9989 2.54665 10.0021 2.54665C9.00008 2.54665 8.03532 2.73852 7.14518 3.10626C6.24971 3.47933 5.42886 4.02295 4.71995 4.73179C3.36608 6.0855 2.63585 7.8496 2.54524 9.63502C2.45462 11.4311 3.01429 13.2591 4.22424 14.7301C4.42679 14.9806 4.45344 15.3164 4.30419 15.5882C4.09099 16.0145 3.86179 16.3769 3.60594 16.6647C3.32344 16.9899 3.01429 17.235 2.67316 17.4056L2.90236 17.4322L3.13156 17.4429C3.55797 17.4429 3.99504 17.3683 4.41613 17.235C4.84787 17.0964 5.26896 16.8886 5.65273 16.6274C5.89792 16.4569 6.20707 16.4516 6.45225 16.5848C6.9906 16.8726 7.56626 17.0964 8.16324 17.2457C8.75489 17.3949 9.36786 17.4695 9.98616 17.4695C10.9882 17.4695 11.9583 17.2777 12.8431 16.9099C13.7332 16.5422 14.5541 15.9932 15.263 15.2897C15.9666 14.5862 16.5156 13.7654 16.8834 12.8754C17.2512 11.9854 17.443 11.0154 17.443 10.0187C17.443 9.01678 17.2512 8.05213 16.8834 7.15675C16.5156 6.26671 15.9666 5.45128 15.263 4.74245L15.2257 4.69981L15.2364 4.68915ZM6.16976 8.26531C5.88726 8.26531 5.65806 8.03614 5.65806 7.75367C5.65806 7.4712 5.88726 7.24203 6.16976 7.24203H13.8345C14.117 7.24203 14.3462 7.4712 14.3462 7.75367C14.3462 8.03614 14.117 8.26531 13.8345 8.26531H6.16976ZM6.16976 10.5144C5.88726 10.5144 5.65806 10.2852 5.65806 10.0027C5.65806 9.72029 5.88726 9.49112 6.16976 9.49112H13.8345C14.117 9.49112 14.3462 9.72029 14.3462 10.0027C14.3462 10.2852 14.117 10.5144 13.8345 10.5144H6.16976ZM6.16976 12.7635C5.88726 12.7635 5.65806 12.5343 5.65806 12.2518C5.65806 11.9694 5.88726 11.7402 6.16976 11.7402H13.8345C14.117 11.7402 14.3462 11.9694 14.3462 12.2518C14.3462 12.5343 14.117 12.7635 13.8345 12.7635H6.16976Z" fill="white"/>
</svg>
