<svg width="20" height="20" viewBox="0 0 20 20" fill="none" xmlns="http://www.w3.org/2000/svg">
<path d="M3.72239 18.4518H16.295V10.8215C16.295 10.4002 16.6349 10.0527 17.0585 10.0527H17.9005C18.1516 10.0527 18.3189 10.0158 18.4183 9.95787C18.4549 9.93681 18.481 9.91048 18.4863 9.88415C18.502 9.82623 18.502 9.7525 18.481 9.67351C18.4549 9.55766 18.3974 9.45234 18.3294 9.38389L16.818 7.91469C16.6611 7.76198 16.5826 7.56187 16.5826 7.36177V1.99052L14.4802 1.98526V3.83886C14.4802 4.26014 14.1403 4.60769 13.7166 4.60769C13.4918 4.60769 13.2878 4.50764 13.1518 4.35492L10.3852 1.6693C10.2806 1.56925 10.1394 1.51659 9.99822 1.51659C9.85701 1.51659 9.71581 1.56925 9.61121 1.6693L1.66705 9.37862C1.60953 9.43128 1.56769 9.52607 1.54154 9.62612C1.52062 9.71564 1.52062 9.7999 1.54154 9.87362C1.552 9.91048 1.57815 9.94734 1.61999 9.97367C1.69843 10.0158 1.82395 10.0474 2.007 10.0474H2.96406C3.38245 10.0474 3.72762 10.3897 3.72762 10.8162V18.4466L3.72239 18.4518ZM9.16667 9.41022H10.8507C11.3318 9.41022 11.7711 9.61032 12.0902 9.93154C12.4144 10.2528 12.6079 10.6951 12.6079 11.1848V14.4023C12.6079 14.8868 12.4092 15.3291 12.0902 15.6503L12.0849 15.6556C11.7659 15.9768 11.3266 16.1769 10.8455 16.1769H9.16144C8.68029 16.1769 8.24099 15.9768 7.92197 15.6556C7.59771 15.3344 7.40421 14.892 7.40421 14.4023V11.1848C7.40421 10.6951 7.60294 10.2528 7.92197 9.93154C8.24099 9.61032 8.6803 9.41022 9.16667 9.41022V9.41022ZM10.8507 10.9479H9.16667C9.10391 10.9479 9.04116 10.9742 8.99932 11.0163C8.95748 11.0585 8.93133 11.1216 8.93133 11.1848V14.4023C8.93133 14.4655 8.95748 14.5234 8.99932 14.5656C9.04116 14.6077 9.09868 14.634 9.16144 14.634H10.8455C10.9082 14.634 10.971 14.6077 11.0128 14.5656C11.0547 14.5234 11.0808 14.4655 11.0808 14.3971V11.1796C11.0808 11.1164 11.0547 11.0532 11.0128 11.0111C10.971 10.9689 10.9134 10.9426 10.8507 10.9426V10.9479ZM16.3107 19.9895H3.69624C3.28831 19.9895 2.91699 19.8262 2.64504 19.5629C2.36786 19.2944 2.19004 18.9152 2.19004 18.5045V11.5956H1.99654C1.51539 11.5956 1.12838 11.4797 0.825047 11.3007C0.443268 11.0637 0.207924 10.732 0.0876375 10.3581C-0.0221896 10.0211 -0.0221896 9.65245 0.0510285 9.31543C0.139936 8.92575 0.338671 8.55187 0.600164 8.29384L8.54432 0.584518C8.94179 0.194839 9.46477 0 9.98776 0C10.5055 0 11.0285 0.194839 11.4312 0.584518L12.9426 2.05371V2.00632C12.9426 1.59031 13.1048 1.21116 13.361 0.937335C13.633 0.647709 14.0095 0.468668 14.4227 0.468668H16.6088C17.0271 0.468668 17.3985 0.647709 17.6704 0.937335C17.9319 1.21643 18.0888 1.59558 18.0888 2.00632V7.05635L19.3649 8.2991C19.6316 8.55714 19.846 8.93628 19.9402 9.33123C20.0239 9.66298 20.0239 10.0263 19.914 10.3686C19.7937 10.7372 19.5584 11.069 19.1609 11.3007C18.8367 11.4903 18.4183 11.6061 17.8796 11.6061H17.8012V18.515C17.8012 18.9258 17.6286 19.3049 17.3462 19.5735C17.0742 19.8368 16.7029 20 16.295 20L16.3107 19.9895Z" fill="#3B3B3B"/>
<path d="M3.72242 18.4518H16.295V10.8215C16.295 10.4002 16.6349 10.0527 17.0586 10.0527H17.9006C18.1516 10.0527 18.319 10.0158 18.4183 9.95787C18.4549 9.93681 18.4811 9.91048 18.4863 9.88415C18.502 9.82622 18.502 9.7525 18.4811 9.67351C18.4549 9.55766 18.3974 9.45234 18.3294 9.38388L16.818 7.91469C16.6611 7.76198 16.5826 7.56187 16.5826 7.36177V1.99052L14.4802 1.98525V3.83886C14.4802 4.26014 14.1403 4.60769 13.7167 4.60769C13.4918 4.60769 13.2878 4.50763 13.1519 4.35492L10.3853 1.6693C10.2807 1.56925 10.1395 1.51659 9.99825 1.51659C9.85704 1.51659 9.71584 1.56925 9.61124 1.6693L1.66709 9.37862C1.60956 9.43128 1.56772 9.52606 1.54157 9.62612C1.52065 9.71564 1.52065 9.79989 1.54157 9.87362C1.55203 9.91048 1.57818 9.94734 1.62002 9.97367C1.69846 10.0158 1.82398 10.0474 2.00703 10.0474H2.96409C3.38248 10.0474 3.72765 10.3897 3.72765 10.8162V18.4465L3.72242 18.4518ZM9.1667 9.41021H10.8507C11.3319 9.41021 11.7712 9.61032 12.0902 9.93154C12.4144 10.2528 12.6079 10.6951 12.6079 11.1848V14.4023C12.6079 14.8868 12.4092 15.3291 12.0902 15.6503L12.085 15.6556C11.7659 15.9768 11.3266 16.1769 10.8455 16.1769H9.16147C8.68033 16.1769 8.24102 15.9768 7.922 15.6556C7.59774 15.3344 7.40424 14.892 7.40424 14.4023V11.1848C7.40424 10.6951 7.60297 10.2528 7.922 9.93154C8.24102 9.61032 8.68033 9.41021 9.1667 9.41021Z" fill="white"/>
</svg>
