<svg width="20" height="20" viewBox="0 0 20 20" fill="none" xmlns="http://www.w3.org/2000/svg">
<path d="M2.32571 18C1.94857 18 1.64 17.6968 1.64 17.3179C1.64 16.9427 1.94476 16.6357 2.32571 16.6357H2.79048V10.7769C2.52762 10.6215 2.28381 10.432 2.06667 10.2198C1.40762 9.56419 1 8.65846 1 7.66177C1 7.40028 1.01524 7.12743 1.06476 6.85457C1.12571 6.54382 1.23238 6.24822 1.41905 5.98674L4.0781 2.28423C4.21143 2.09853 4.42095 2 4.63429 2H15.3619C15.6095 2 15.8267 2.13264 15.9486 2.3297L18.5352 5.90715C18.7295 6.17622 18.8476 6.47939 18.9162 6.79773C18.9771 7.08574 19 7.37755 19 7.66177C19 8.65846 18.5924 9.56419 17.9333 10.216C17.72 10.4282 17.4876 10.6101 17.2324 10.7617V16.6357H17.6743C18.0514 16.6357 18.36 16.9389 18.36 17.3179C18.36 17.693 18.0552 18 17.6743 18H2.3219H2.32571ZM4.1581 16.6395H15.8686V11.2506C15.7048 11.2733 15.5371 11.2847 15.3657 11.2847C14.6495 11.2847 13.979 11.0763 13.4114 10.7162C13.1448 10.5457 12.8971 10.3411 12.6838 10.1099C12.4705 10.3411 12.2267 10.5457 11.96 10.7162C11.3924 11.0763 10.7219 11.2885 10.0057 11.2885C9.28952 11.2885 8.61905 11.0801 8.05143 10.72C7.78476 10.5495 7.53714 10.3449 7.32381 10.1137C7.11048 10.3449 6.86667 10.5495 6.59619 10.72C6.02857 11.0801 5.3581 11.2885 4.6419 11.2885C4.4781 11.2885 4.3219 11.2771 4.16571 11.2582V16.6471L4.1581 16.6395ZM3.66286 9.70441C3.72 9.71956 3.76952 9.7423 3.81905 9.77262C4.07048 9.86736 4.34857 9.92421 4.63429 9.92421C5.08762 9.92421 5.50667 9.79536 5.85714 9.57177C6.21905 9.3406 6.51238 9.00711 6.69524 8.61298C6.76 8.47276 6.87429 8.35149 7.03048 8.27949C7.37333 8.12411 7.77714 8.27191 7.93714 8.61298C8.12 9.00711 8.41333 9.3406 8.77524 9.57177C9.12571 9.79536 9.54476 9.92421 9.9981 9.92421C10.4476 9.92421 10.8667 9.79536 11.2171 9.57177C11.5829 9.3406 11.8762 9.00711 12.059 8.61298C12.1238 8.47276 12.2381 8.35149 12.3943 8.27949C12.7371 8.12411 13.141 8.27191 13.301 8.61298C13.4838 9.00711 13.7771 9.3406 14.139 9.57177C14.4895 9.79536 14.9086 9.92421 15.3619 9.92421C15.9905 9.92421 16.5581 9.6703 16.9695 9.2648C17.3771 8.85552 17.6324 8.29086 17.6324 7.66556C17.6324 7.46092 17.621 7.26007 17.5829 7.08195C17.5524 6.93415 17.5029 6.80152 17.4305 6.70298L15.0152 3.36428H4.98476L2.53143 6.78257C2.47048 6.86973 2.42857 6.98342 2.40571 7.11227C2.37524 7.27522 2.36762 7.4685 2.36762 7.66556C2.36762 8.29086 2.62286 8.85552 3.03048 9.26101C3.21333 9.44292 3.42667 9.5945 3.66286 9.70441V9.70441Z" fill="#3B3B3B"/>
<path d="M4.15808 16.6395H15.8686V11.2506C15.7047 11.2733 15.5371 11.2847 15.3657 11.2847C14.6495 11.2847 13.979 11.0763 13.4114 10.7162C13.1447 10.5457 12.8971 10.3411 12.6838 10.1099C12.4705 10.3411 12.2267 10.5457 11.96 10.7162C11.3924 11.0763 10.7219 11.2885 10.0057 11.2885C9.28951 11.2885 8.61903 11.0801 8.05141 10.72C7.78475 10.5495 7.53713 10.3449 7.3238 10.1137C7.11046 10.3449 6.86665 10.5495 6.59618 10.72C6.02856 11.0801 5.35808 11.2885 4.64189 11.2885C4.47808 11.2885 4.32189 11.2771 4.1657 11.2582V16.6471L4.15808 16.6395Z" fill="white"/>
</svg>
