<svg width="20" height="20" viewBox="0 0 20 20" fill="none" xmlns="http://www.w3.org/2000/svg">
<path d="M14.5656 8.78428C14.5656 7.20807 13.922 5.77711 12.8889 4.74423C11.8505 3.71136 10.4118 3.07657 8.82703 3.07657C7.2423 3.07657 5.809 3.71674 4.77054 4.74961C3.73208 5.78249 3.08845 7.20807 3.08845 8.78428C3.08845 10.3605 3.73208 11.7861 4.77054 12.8189C5.809 13.8518 7.2423 14.492 8.82703 14.492C10.4118 14.492 11.8451 13.8518 12.8835 12.8189C13.922 11.7861 14.5656 10.3605 14.5656 8.78428ZM16.3397 18.5374L13.0891 15.3151C11.8613 16.1059 10.401 16.5685 8.82703 16.5685C6.66898 16.5685 4.71105 15.697 3.29398 14.2876H3.28857C1.8715 12.8781 0.9953 10.9307 0.9953 8.78428C0.9953 6.63246 1.8715 4.68506 3.28857 3.28099C4.70564 1.87155 6.66357 1.00006 8.82162 1.00006C10.9851 1.00006 12.9376 1.87155 14.3547 3.28099V3.28637C15.7717 4.69582 16.6479 6.64322 16.6479 8.78966C16.6479 10.4035 16.1558 11.899 15.3066 13.1471C16.3234 14.18 18.3517 16.2457 18.541 16.3426C18.8439 16.6492 18.9953 17.0473 18.9953 17.44C18.9953 17.8381 18.8439 18.2362 18.541 18.5374V18.5428C18.2381 18.8441 17.8378 19.0001 17.4376 19.0001C17.0374 19.0001 16.6371 18.8494 16.3342 18.5428L16.3397 18.5374ZM5.17619 8.78428C5.17619 9.0694 4.94362 9.30072 4.65696 9.30072C4.3703 9.30072 4.13773 9.0694 4.13773 8.78428C4.13773 7.49857 4.66237 6.3312 5.51153 5.48123C6.36609 4.63126 7.53977 4.10945 8.83244 4.10945C9.1191 4.10945 9.35167 4.34077 9.35167 4.62588C9.35167 4.911 9.1191 5.14232 8.83244 5.14232C7.82102 5.14232 6.90696 5.54579 6.2471 6.20209C5.58725 6.8584 5.17619 7.76754 5.17619 8.77352V8.78428Z" fill="#3B3B3B"/>
<path d="M14.5657 8.78428C14.5657 7.20807 13.922 5.77711 12.889 4.74423C11.8505 3.71136 10.4118 3.07657 8.82708 3.07657C7.24235 3.07657 5.80905 3.71674 4.77059 4.74961C3.73213 5.78249 3.0885 7.20807 3.0885 8.78428C3.0885 10.3605 3.73213 11.7861 4.77059 12.8189C5.80905 13.8518 7.24235 14.492 8.82708 14.492C10.4118 14.492 11.8451 13.8518 12.8836 12.8189C13.922 11.7861 14.5657 10.3605 14.5657 8.78428ZM5.17624 8.78428C5.17624 9.0694 4.94367 9.30072 4.65701 9.30072C4.37035 9.30072 4.13778 9.0694 4.13778 8.78428C4.13778 7.49857 4.66242 6.3312 5.51158 5.48123C6.36615 4.63126 7.53982 4.10944 8.83249 4.10944C9.11915 4.10944 9.35172 4.34076 9.35172 4.62588C9.35172 4.911 9.11915 5.14232 8.83249 5.14232C7.82107 5.14232 6.90701 5.54579 6.24716 6.20209C5.5873 6.8584 5.17624 7.76754 5.17624 8.77352V8.78428Z" fill="white"/>
</svg>
