<svg width="20" height="20" viewBox="0 0 20 20" fill="none" xmlns="http://www.w3.org/2000/svg">
<path d="M9.99886 8.37518C9.55129 8.37518 9.14172 8.56088 8.84616 8.85631C8.55059 9.15173 8.3648 9.56111 8.3648 10.0085C8.3648 10.4558 8.55059 10.8652 8.84616 11.1606C9.14172 11.4561 9.55129 11.6418 9.99886 11.6418C10.4464 11.6418 10.856 11.4561 11.1516 11.1649C11.4471 10.8694 11.6287 10.4601 11.6287 10.0127C11.6287 9.56533 11.4429 9.15596 11.1474 8.86053C10.8518 8.5651 10.4422 8.3794 9.99464 8.3794L9.99886 8.37518ZM17.2656 9.07999L15.5513 8.74658C15.2726 8.69171 15.0573 8.49335 14.9728 8.24013C14.939 8.13462 14.8968 8.04177 14.8588 7.95314L14.7533 7.69992C14.6646 7.45935 14.7026 7.20613 14.8335 7.00777L15.8553 5.49687C15.8764 5.45889 15.8849 5.41246 15.8806 5.36182V5.32805C15.8722 5.28163 15.8511 5.2352 15.8173 5.193L14.8546 4.23075C14.8124 4.18855 14.7617 4.16322 14.711 4.159C14.6519 4.15478 14.5886 4.17166 14.5337 4.20543L13.0432 5.2141C12.7941 5.38292 12.4774 5.38292 12.2367 5.23943C12.1396 5.19722 12.0172 5.1508 11.9032 5.10859L11.7849 5.06639C11.5274 4.96932 11.35 4.74986 11.2994 4.49664L10.9616 2.76627C10.9447 2.6903 10.9025 2.627 10.8518 2.58479C10.8053 2.54681 10.7504 2.52571 10.6913 2.52571H9.31484C9.25573 2.52571 9.19661 2.54681 9.15861 2.58057C9.11639 2.61434 9.08683 2.66076 9.07839 2.71563L8.73637 4.47553C8.68148 4.75408 8.48303 4.96932 8.22969 5.05373C8.12413 5.08749 8.03124 5.12969 7.94257 5.16768L7.685 5.27319C7.44433 5.36182 7.19098 5.32383 6.99253 5.193L5.48092 4.17166C5.44292 4.15056 5.39647 4.14212 5.35003 4.14634H5.34158C5.29091 4.15056 5.24024 4.17588 5.20224 4.20965L4.23954 5.1719C4.19732 5.2141 4.17198 5.26475 4.16776 5.31539C4.16776 5.37448 4.18043 5.43778 4.21843 5.49265L5.22758 6.98245C5.39647 7.23145 5.39647 7.54798 5.25291 7.79277C5.21069 7.88984 5.16424 8.01223 5.12202 8.12618L5.07979 8.24435C4.98268 8.50179 4.76312 8.67905 4.50977 8.72969L2.74482 9.07155C2.67304 9.09265 2.61393 9.13063 2.5717 9.17706L2.55481 9.19816C2.52948 9.23614 2.51681 9.28257 2.51681 9.33321V10.7091C2.51681 10.7681 2.53792 10.8272 2.5717 10.8652C2.60548 10.9074 2.65193 10.937 2.70682 10.9454L4.46755 11.2873C4.76312 11.3421 4.9869 11.5658 5.05868 11.8359L5.26558 12.3381C5.35425 12.5787 5.31625 12.8319 5.18535 13.0303L4.16354 14.5412C4.14243 14.5792 4.13398 14.6256 4.1382 14.6762L4.14243 14.71C4.15509 14.7649 4.18043 14.8155 4.21843 14.8577L5.16002 15.7989C5.20647 15.8411 5.25713 15.8664 5.3078 15.8706C5.36692 15.8748 5.43025 15.8579 5.48514 15.8242L6.97564 14.8155C7.22476 14.6467 7.54144 14.6467 7.78634 14.7902C7.88345 14.8324 8.0059 14.8788 8.11991 14.921L8.23813 14.9632C8.4957 15.0603 8.67304 15.2798 8.72371 15.533L9.06994 17.314C9.08261 17.3604 9.10794 17.4026 9.14172 17.4279C9.18395 17.4617 9.23884 17.4786 9.30639 17.4786H10.704C10.7631 17.4786 10.8222 17.4575 10.8602 17.4237C10.9025 17.39 10.932 17.3435 10.9405 17.2887L11.2825 15.5288C11.3374 15.2375 11.5569 15.0139 11.8272 14.9379C11.996 14.8788 12.1016 14.8324 12.2621 14.7606C12.5238 14.6298 12.8236 14.6636 13.0474 14.824L14.5379 15.8326C14.5759 15.8537 14.6266 15.8622 14.673 15.8579C14.7406 15.8537 14.8082 15.8242 14.8588 15.7735L15.8046 14.8324C15.8469 14.786 15.8722 14.7395 15.8764 14.6889C15.8806 14.6383 15.868 14.5876 15.8342 14.5412L14.8166 13.0387C14.6477 12.7897 14.6477 12.4774 14.7913 12.2326C14.8335 12.1398 14.8757 12.0216 14.9179 11.9077L14.9644 11.781C15.0615 11.5236 15.2811 11.3463 15.5344 11.2957L17.3162 10.9496C17.3627 10.937 17.4049 10.9116 17.4303 10.8779C17.464 10.8357 17.4809 10.7808 17.4809 10.7133L17.4851 9.25302C17.4809 9.21504 17.4683 9.18128 17.4429 9.15173C17.4176 9.11797 17.3754 9.08843 17.3247 9.07999L17.2656 9.06733V9.07999ZM16.4211 7.37073L17.6076 7.59863C18.0172 7.67882 18.3761 7.91094 18.6294 8.22747C18.8616 8.5229 19.001 8.89007 19.001 9.28679V10.7259C19.001 11.1438 18.8574 11.5363 18.6041 11.8486C18.3634 12.144 18.0256 12.3635 17.6203 12.4479L16.4 12.6842L17.0798 13.6887C17.3162 14.0305 17.4176 14.4357 17.3796 14.8282C17.3416 15.2249 17.1727 15.6132 16.8729 15.9086L15.8891 16.8877C15.5893 17.1663 15.2008 17.3351 14.7997 17.3689C14.4155 17.4026 14.0186 17.314 13.6808 17.0903L12.6547 16.3982L12.4267 17.5841C12.3465 17.9892 12.1185 18.3438 11.8103 18.597C11.502 18.846 11.1136 18.9979 10.6956 18.9979H9.29795C8.87993 18.9979 8.48725 18.8544 8.1748 18.6012C7.87923 18.3606 7.65967 18.0188 7.57522 17.6179L7.33877 16.4024L6.33384 17.0819C5.97494 17.3182 5.56959 17.4153 5.17691 17.3815C4.77578 17.3435 4.38732 17.1747 4.08754 16.8751L3.10794 15.8917C2.85038 15.6174 2.68993 15.2629 2.63926 14.8957L2.62659 14.8028C2.59281 14.4188 2.68148 14.0221 2.90949 13.6802L3.60196 12.6547L2.41547 12.4268C2.01012 12.3466 1.65545 12.1187 1.4021 11.8106C1.15298 11.5025 1.00098 11.1142 1.00098 10.6964V9.32055C1.00098 8.92383 1.13609 8.55244 1.37255 8.24857L1.41477 8.1937C1.65545 7.90672 1.99324 7.69148 2.38592 7.59019L2.46614 7.56909L3.64419 7.34118L2.96016 6.32829C2.72371 5.97377 2.62659 5.56862 2.66037 5.17612C2.69837 4.77096 2.87149 4.3869 3.17128 4.08726L4.13398 3.12501C4.4211 2.84224 4.80112 2.6692 5.1938 2.63122L5.21913 2.627C5.60337 2.59324 6.00027 2.68186 6.33806 2.90554L7.3641 3.59769L7.59211 2.41176C7.67233 2.0066 7.90034 1.64787 8.20858 1.39886C8.51681 1.14986 8.90527 0.997925 9.32328 0.997925H10.6998C11.122 0.997925 11.5105 1.14564 11.8229 1.39886C12.1269 1.64787 12.355 1.99816 12.4521 2.40754L12.6885 3.61879L13.6934 2.93931C14.0523 2.70297 14.4577 2.6059 14.8504 2.63966C15.2515 2.67764 15.64 2.84646 15.9398 3.14611L16.9193 4.12946C17.1769 4.40801 17.3416 4.76252 17.3923 5.1297L17.4049 5.21832C17.4387 5.60238 17.35 5.9991 17.122 6.34095L16.4295 7.36651L16.4211 7.37073ZM7.76945 7.7801C8.33947 7.21035 9.12905 6.85584 9.99886 6.85584C10.8645 6.85584 11.654 7.21035 12.2241 7.7801C12.7941 8.34986 13.1488 9.13907 13.1488 10.0043C13.1488 10.8694 12.7941 11.6544 12.2241 12.2284L12.2198 12.2326C11.6498 12.8024 10.8602 13.1569 9.99464 13.1569C9.12905 13.1569 8.33947 12.8024 7.76945 12.2326C7.19943 11.6629 6.84053 10.8737 6.84053 10.0085C6.84053 9.14329 7.19521 8.35408 7.76523 7.78433L7.76945 7.7801Z" fill="#3B3B3B"/>
<path d="M17.2656 9.07999L15.5513 8.74658C15.2726 8.69171 15.0573 8.49335 14.9728 8.24013C14.939 8.13462 14.8968 8.04177 14.8588 7.95314L14.7533 7.69992C14.6646 7.45935 14.7026 7.20613 14.8335 7.00777L15.8553 5.49687C15.8764 5.45889 15.8849 5.41246 15.8806 5.36182V5.32805C15.8722 5.28163 15.8511 5.2352 15.8173 5.193L14.8546 4.23075C14.8124 4.18855 14.7617 4.16322 14.711 4.159C14.6519 4.15478 14.5886 4.17166 14.5337 4.20543L13.0432 5.2141C12.7941 5.38292 12.4774 5.38292 12.2367 5.23943C12.1396 5.19722 12.0172 5.1508 11.9032 5.10859L11.7849 5.06639C11.5274 4.96932 11.35 4.74986 11.2994 4.49664L10.9616 2.76627C10.9447 2.6903 10.9025 2.627 10.8518 2.58479C10.8053 2.54681 10.7504 2.52571 10.6913 2.52571H9.31481C9.2557 2.52571 9.19658 2.54681 9.15858 2.58057C9.11636 2.61434 9.0868 2.66076 9.07836 2.71563L8.73634 4.47553C8.68145 4.75408 8.483 4.96932 8.22966 5.05373C8.1241 5.08749 8.03121 5.12969 7.94254 5.16768L7.68497 5.27319C7.4443 5.36182 7.19095 5.32383 6.9925 5.193L5.48089 4.17166C5.44289 4.15056 5.39644 4.14212 5.35 4.14634H5.34155C5.29088 4.15056 5.24021 4.17588 5.20221 4.20965L4.23951 5.1719C4.19729 5.2141 4.17195 5.26475 4.16773 5.31539C4.16773 5.37448 4.1804 5.43778 4.2184 5.49265L5.22755 6.98245C5.39644 7.23145 5.39644 7.54798 5.25288 7.79277C5.21066 7.88984 5.16421 8.01223 5.12199 8.12618L5.07976 8.24435C4.98265 8.50179 4.76309 8.67905 4.50974 8.72969L2.74479 9.07155C2.67301 9.09265 2.6139 9.13063 2.57167 9.17706L2.55478 9.19816C2.52945 9.23614 2.51678 9.28257 2.51678 9.33321V10.7091C2.51678 10.7681 2.53789 10.8272 2.57167 10.8652C2.60545 10.9074 2.6519 10.937 2.70679 10.9454L4.46752 11.2873C4.76309 11.3421 4.98687 11.5658 5.05865 11.8359L5.26555 12.3381C5.35422 12.5787 5.31622 12.8319 5.18532 13.0303L4.16351 14.5412C4.1424 14.5792 4.13395 14.6256 4.13817 14.6762L4.1424 14.71C4.15506 14.7649 4.1804 14.8155 4.2184 14.8577L5.15999 15.7989C5.20644 15.8411 5.2571 15.8664 5.30777 15.8706C5.36689 15.8748 5.43022 15.8579 5.48511 15.8242L6.97561 14.8155C7.22473 14.6467 7.54141 14.6467 7.78631 14.7902C7.88342 14.8324 8.00587 14.8788 8.11988 14.921L8.2381 14.9632C8.49567 15.0603 8.67301 15.2798 8.72368 15.533L9.06991 17.314C9.08258 17.3604 9.10791 17.4026 9.14169 17.4279C9.18392 17.4617 9.23881 17.4786 9.30636 17.4786H10.704C10.7631 17.4786 10.8222 17.4575 10.8602 17.4237C10.9025 17.39 10.932 17.3435 10.9405 17.2887L11.2825 15.5288C11.3374 15.2375 11.5569 15.0139 11.8272 14.9379C11.996 14.8788 12.1016 14.8324 12.2621 14.7606C12.5238 14.6298 12.8236 14.6636 13.0474 14.824L14.5379 15.8326C14.5759 15.8537 14.6266 15.8622 14.673 15.8579C14.7406 15.8537 14.8082 15.8242 14.8588 15.7735L15.8046 14.8324C15.8469 14.786 15.8722 14.7395 15.8764 14.6889C15.8806 14.6383 15.868 14.5876 15.8342 14.5412L14.8166 13.0387C14.6477 12.7897 14.6477 12.4774 14.7913 12.2326C14.8335 12.1398 14.8757 12.0216 14.9179 11.9077L14.9644 11.781C15.0615 11.5236 15.2811 11.3463 15.5344 11.2957L17.3162 10.9496C17.3627 10.937 17.4049 10.9116 17.4303 10.8779C17.464 10.8357 17.4809 10.7808 17.4809 10.7133L17.4851 9.25302C17.4809 9.21504 17.4683 9.18128 17.4429 9.15173C17.4176 9.11797 17.3754 9.08843 17.3247 9.07999L17.2656 9.06733V9.07999ZM7.76942 7.7801C8.33944 7.21035 9.12902 6.85584 9.99883 6.85584C10.8645 6.85584 11.654 7.21035 12.2241 7.7801C12.7941 8.34986 13.1488 9.13907 13.1488 10.0043C13.1488 10.8694 12.7941 11.6544 12.2241 12.2284L12.2198 12.2326C11.6498 12.8024 10.8602 13.1569 9.99461 13.1569C9.12902 13.1569 8.33944 12.8024 7.76942 12.2326C7.1994 11.6629 6.8405 10.8737 6.8405 10.0085C6.8405 9.14329 7.19518 8.35408 7.7652 7.78433L7.76942 7.7801Z" fill="white"/>
</svg>
